HIERARCHY
ROOT SpineBase
{
  OFFSET 0.000000 0.000000 0.000000
  CHANNELS 6 Xposition Yposition Zposition Zrotation Xrotation Yrotation
  JOINT SpineMid
  {
    OFFSET 0.000000 31.772770 0.000000
    CHANNELS 3 Zrotation Xrotation Yrotation
    JOINT SpineShoulder
    {
      OFFSET 0.393536 23.318403 -0.454609
      CHANNELS 3 Zrotation Xrotation Yrotation
      JOINT Neck
      {
        OFFSET 0.140947 7.683381 -0.396819
        CHANNELS 3 Zrotation Xrotation Yrotation
        JOINT Head
        {
          OFFSET 3.583779 13.641460 1.593019
          CHANNELS 3 Zrotation Xrotation Yrotation
          End Site
          {
            OFFSET 0 0 0
          }
        }
      }
      JOINT ShoulderLeft
      {
        OFFSET -9.836640 -3.096235 -11.584712
        CHANNELS 3 Zrotation Xrotation Yrotation
        JOINT ElbowLeft
        {
          OFFSET -9.260840 -28.818226 -2.090213
          CHANNELS 3 Zrotation Xrotation Yrotation
          JOINT WristLeft
          {
            OFFSET -2.971294 -22.776952 -0.351983
            CHANNELS 3 Zrotation Xrotation Yrotation
            JOINT HandLeft
            {
              OFFSET -0.957591 1.814063 1.104829
              CHANNELS 3 Zrotation Xrotation Yrotation
              JOINT HandTipLeft
              {
                OFFSET 0.004693 -6.929472 -0.502750
                CHANNELS 3 Zrotation Xrotation Yrotation
                End Site
                {
                  OFFSET 0 0 0
                }
              }
              JOINT ThumbLeft
              {
                OFFSET -3.484460 0.913936 -1.354283
                CHANNELS 3 Zrotation Xrotation Yrotation
                End Site
                {
                  OFFSET 0 0 0
                }
              }
            }
          }
        }
      }
      JOINT ShoulderRight
      {
        OFFSET 13.202088 -5.720083 9.243405
        CHANNELS 3 Zrotation Xrotation Yrotation
        JOINT ElbowRight
        {
          OFFSET 2.977414 -27.781430 8.916139
          CHANNELS 3 Zrotation Xrotation Yrotation
          JOINT WristRight
          {
            OFFSET -0.227764 -23.126185 -13.836234
            CHANNELS 3 Zrotation Xrotation Yrotation
            JOINT HandRight
            {
              OFFSET -1.145211 -3.204708 0.152277
              CHANNELS 3 Zrotation Xrotation Yrotation
              JOINT HandTipRight
              {
                OFFSET -2.391582 -4.464628 -0.528856
                CHANNELS 3 Zrotation Xrotation Yrotation
                End Site
                {
                  OFFSET 0 0 0
                }
              }
              JOINT ThumbRight
              {
                OFFSET -2.086267 -3.247623 -1.181163
                CHANNELS 3 Zrotation Xrotation Yrotation
                End Site
                {
                  OFFSET 0 0 0
                }
              }
            }
          }
        }
      }
    }
  }
  JOINT HipLeft
  {
    OFFSET -5.134203 1.484753 -6.899206
    CHANNELS 3 Zrotation Xrotation Yrotation
    JOINT KneeLeft
    {
      OFFSET -5.503819 -28.007969 3.118502
      CHANNELS 3 Zrotation Xrotation Yrotation
      JOINT AnkleLeft
      {
        OFFSET -3.722520 -28.915709 4.271864
        CHANNELS 3 Zrotation Xrotation Yrotation
        JOINT FootLeft
        {
          OFFSET 7.366880 -3.470456 -12.059952
          CHANNELS 3 Zrotation Xrotation Yrotation
          End Site
          {
            OFFSET 0 0 0
          }
        }
      }
    }
  }
  JOINT HipRight
  {
    OFFSET 5.724835 0.689611 -0.531726
    CHANNELS 3 Zrotation Xrotation Yrotation
    JOINT KneeRight
    {
      OFFSET -1.041999 -27.037689 8.310335
      CHANNELS 3 Zrotation Xrotation Yrotation
      JOINT AnkleRight
      {
        OFFSET -5.876947 -26.977069 4.362673
        CHANNELS 3 Zrotation Xrotation Yrotation
        JOINT FootRight
        {
          OFFSET 4.776220 -4.554167 -9.758547
          CHANNELS 3 Zrotation Xrotation Yrotation
          End Site
          {
            OFFSET 0 0 0
          }
        }
      }
    }
  }
}
MOTION
Frames: 5
Frame Time: 0.033333
-18.152759 63.105512 343.230290 -0.000000 0.000000 -30.386340 -0.000000 0.000000 30.386340 -0.000000 0.000000 0.000000 -0.000000 0.000000 0.000000 0.000000 0.000000 0.000000 -0.000000 0.000000 0.000000 -0.000000 0.000000 0.000000 -0.000000 0.000000 0.000000 -0.000000 0.000000 0.000000 0.000000 0.000000 0.000000 0.000000 0.000000 0.000000 -0.000000 0.000000 0.000000 -0.000000 0.000000 0.000000 -0.000000 0.000000 0.000000 -0.000000 0.000000 0.000000 0.000000 0.000000 0.000000 0.000000 0.000000 0.000000 -0.000000 0.000000 30.386340 -0.000000 0.000000 0.000000 -0.000000 0.000000 0.000000 0.000000 0.000000 0.000000 -0.000000 0.000000 30.386340 -0.000000 0.000000 0.000000 -0.000000 0.000000 0.000000 0.000000 0.000000 0.000000
-17.378377 63.241396 343.244910 0.572234 0.514512 -29.933721 -0.239187 -0.731408 29.929625 -0.000000 0.000000 0.000000 -0.000000 0.000000 0.000000 0.000000 0.000000 0.000000 0.913798 0.279500 -0.158706 1.823762 2.012576 -0.229002 -0.358401 14.649543 6.855055 -5.260515 -24.170614 -7.767190 0.000000 0.000000 0.000000 0.000000 0.000000 0.000000 -0.897727 4.676671 0.253563 1.330252 -7.168155 -0.385349 0.053511 -6.415924 3.481665 -0.564939 9.647971 -3.410304 0.000000 0.000000 0.000000 0.000000 0.000000 0.000000 -1.057784 -1.325878 29.824109 1.005731 0.108536 0.089868 -0.591587 -1.816217 -1.937004 0.000000 0.000000 0.000000 -2.065666 -1.545293 29.274192 1.990814 -0.183671 0.622334 -2.496253 -2.268724 3.123858 0.000000 0.000000 0.000000
-16.739370 63.358738 343.321241 0.990530 0.915422 -29.621949 -0.408753 -1.285306 29.609451 -0.000000 0.000000 0.000000 0.225053 0.833385 -0.246780 0.000000 0.000000 0.000000 1.906014 0.578303 -0.335388 3.701944 3.754622 -0.493718 -66.260516 76.410305 94.217845 -109.749209 -53.051364 -117.630322 0.000000 0.000000 0.000000 0.000000 0.000000 0.000000 -1.639071 8.502228 0.521897 2.545447 -13.302350 -0.643675 0.524018 -11.870907 6.722175 -0.093696 18.109994 -6.587751 0.000000 0.000000 0.000000 0.000000 0.000000 0.000000 -1.913187 -2.234549 29.382319 1.776050 0.088571 0.179551 -1.190128 -3.443616 -3.675935 0.000000 0.000000 0.000000 -3.782310 -2.659412 28.365135 3.323292 -1.219596 1.263831 -4.606467 -3.650790 6.419573 0.000000 0.000000 0.000000
-16.235739 63.457537 343.459283 1.251127 1.199726 -29.423402 -0.254811 -0.722572 29.409568 -0.674206 -0.695458 -0.005498 0.257733 1.201444 -0.348224 0.000000 0.000000 0.000000 2.985092 0.897996 -0.532693 5.638136 5.231186 -0.779442 -139.122532 50.564896 174.496084 -139.017327 -16.159202 -148.316637 0.000000 0.000000 0.000000 0.000000 0.000000 0.000000 -2.206898 11.433479 0.768289 3.657467 -18.282977 -0.814080 1.330648 -16.686064 9.857431 1.394037 25.549347 -9.999685 0.000000 0.000000 0.000000 0.000000 0.000000 0.000000 -2.565627 -2.741955 29.051988 3.153881 0.253645 0.354106 -2.552576 -5.038508 -5.132594 0.000000 0.000000 0.000000 -5.132919 -3.364800 27.671492 4.476254 -1.704207 1.703486 -6.778872 -5.513388 10.030564 0.000000 0.000000 0.000000
-15.867485 63.537794 343.659037 1.351111 1.365101 -29.320008 -0.119559 -0.768307 29.308848 -0.870667 -0.753652 -0.009979 0.237970 1.538929 -0.434859 0.000000 0.000000 0.000000 4.160711 1.240257 -0.753740 7.634188 6.446522 -1.069821 -143.215743 42.968876 177.334252 -144.037118 -6.125477 -152.720080 0.000000 0.000000 0.000000 0.000000 0.000000 0.000000 -2.588001 13.467208 0.963709 4.663456 -22.037317 -0.937449 2.488142 -21.238702 13.051911 4.053150 32.176063 -14.129866 0.000000 0.000000 0.000000 0.000000 0.000000 0.000000 -3.016115 -2.854780 28.827977 3.593167 0.030868 0.464907 -3.020539 -5.909664 -5.959431 0.000000 0.000000 0.000000 -6.108042 -3.678651 27.204091 5.289866 -2.117692 2.017096 -8.813257 -7.327947 13.871024 0.000000 0.000000 0.000000
